<?xml version="1.0" standalone="no"?>
<!DOCTYPE svg PUBLIC "-//W3C//DTD SVG 20010904//EN"
 "http://www.w3.org/TR/2001/REC-SVG-20010904/DTD/svg10.dtd">
<svg version="1.0" xmlns="http://www.w3.org/2000/svg"
 width="225.000000pt" height="225.000000pt" viewBox="0 0 225.000000 225.000000"
 preserveAspectRatio="xMidYMid meet">

<g transform="translate(0.000000,225.000000) scale(0.100000,-0.100000)"
fill="#000000" stroke="none">
<path d="M1058 2094 c-3 -5 -13 -34 -23 -64 -10 -30 -22 -61 -28 -67 -6 -8
-35 -13 -78 -13 -38 0 -69 -4 -69 -8 0 -5 25 -26 55 -48 60 -43 62 -50 40
-134 -8 -30 -13 -56 -11 -58 2 -1 30 15 61 37 32 23 61 41 65 41 4 0 35 -18
68 -40 34 -22 62 -36 62 -32 0 4 -9 36 -20 72 -11 36 -20 67 -20 70 0 3 25 25
55 49 30 24 55 48 55 52 0 5 -33 9 -74 9 l-73 0 -30 71 c-17 40 -32 68 -35 63z"/>
<path d="M582 2046 c-183 -45 -342 -209 -381 -394 -43 -205 46 -419 222 -533
61 -40 155 -74 223 -82 l40 -5 -81 82 c-92 93 -146 188 -170 302 -48 227 37
470 214 609 44 35 44 35 15 34 -16 0 -53 -6 -82 -13z"/>
<path d="M1057 1192 l-727 -727 68 -68 67 -67 728 728 727 727 -68 68 -67 67
-728 -728z"/>
<path d="M765 1619 l-18 -57 -61 -7 -61 -7 23 -19 c13 -10 34 -26 48 -36 23
-18 24 -19 9 -73 -8 -30 -13 -55 -11 -57 1 -2 20 10 42 27 48 36 54 36 105 4
23 -14 43 -23 46 -20 3 3 -2 27 -11 53 l-17 48 48 43 47 42 -60 0 -61 0 -25
58 -25 57 -18 -56z"/>
<path d="M1832 1215 l51 -127 41 48 c23 27 67 78 98 114 55 63 56 65 33 71
-13 4 -80 10 -149 14 l-125 7 51 -127z"/>
<path d="M1322 927 c-193 -193 -352 -355 -352 -359 0 -14 119 -68 182 -83 362
-85 698 251 613 613 -15 63 -69 182 -83 182 -4 0 -166 -159 -360 -353z"/>
<path d="M1871 848 c-5 -13 -27 -68 -50 -122 -23 -54 -40 -100 -39 -101 4 -3
292 17 297 21 3 3 -188 224 -195 224 -3 0 -8 -10 -13 -22z"/>
<path d="M915 339 c4 -73 10 -140 14 -150 5 -13 28 2 118 81 l111 97 -86 36
c-48 20 -104 43 -126 52 l-39 16 8 -132z"/>
<path d="M1503 421 c-62 -26 -115 -50 -118 -53 -6 -5 196 -188 215 -196 4 -1
11 59 15 134 4 75 9 143 12 150 7 20 1 18 -124 -35z"/>
</g>
</svg>
